<?xml version="1.0" standalone="no"?>
<!DOCTYPE svg PUBLIC "-//W3C//DTD SVG 20010904//EN"
 "http://www.w3.org/TR/2001/REC-SVG-20010904/DTD/svg10.dtd">
<svg version="1.0" xmlns="http://www.w3.org/2000/svg"
 width="1300.000000pt" height="1300.000000pt" viewBox="0 0 1300.000000 1300.000000"
 preserveAspectRatio="xMidYMid meet">

<g transform="translate(0.000000,1300.000000) scale(0.100000,-0.100000)"
fill="#000000" stroke="none">
<path d="M6437 12335 c-62 -17 -70 -25 -25 -25 51 0 178 -35 240 -66 144 -72
327 -227 430 -363 24 -31 45 -58 48 -61 39 -38 180 -286 230 -407 115 -276
156 -479 147 -742 -7 -239 -53 -369 -173 -489 l-64 -65 41 7 c54 9 130 48 179
92 321 291 223 1092 -203 1658 -176 234 -410 413 -602 461 -72 18 -182 18
-248 0z m1143 -1178 c0 -2 -15 -16 -32 -33 l-33 -29 29 33 c28 30 36 37 36 29z
m-84 -85 c-17 -16 -18 -16 -5 5 7 12 15 20 18 17 3 -2 -3 -12 -13 -22z"/>
<path d="M6776 11642 c-58 -281 -64 -302 -79 -302 -7 0 -49 98 -93 218 -76
202 -83 217 -105 214 -12 -1 -25 -4 -27 -6 -2 -2 33 -101 77 -219 73 -195 79
-219 69 -247 -22 -65 10 -166 73 -228 25 -25 41 -32 71 -32 35 0 41 4 54 35
20 48 18 67 -12 143 l-27 66 52 250 c29 138 53 259 54 269 1 11 -12 30 -29 43
l-31 24 -47 -228z"/>
<path d="M8130 11350 c-12 -8 -11 -10 6 -10 11 0 114 -55 230 -121 115 -67
223 -130 239 -139 142 -80 379 -217 415 -240 25 -15 65 -39 90 -52 42 -23 106
-60 338 -194 53 -31 113 -66 132 -76 19 -11 40 -24 45 -28 6 -4 35 -21 66 -37
53 -29 262 -149 379 -218 103 -61 115 -66 135 -51 16 11 14 15 -21 37 -59 36
-62 35 -24 -7 20 -22 9 -15 -25 17 -57 53 -175 128 -175 112 0 -5 -4 -3 -8 4
-7 10 -134 87 -320 192 -34 20 -165 95 -290 167 -1212 701 -1126 654 -1172
654 -14 0 -32 -5 -40 -10z"/>
<path d="M8360 9387 c0 -1304 1 -1385 17 -1392 10 -3 92 -50 183 -104 91 -54
257 -151 370 -216 113 -65 306 -177 430 -248 124 -72 324 -187 445 -257 121
-70 324 -187 450 -260 127 -73 318 -183 425 -245 107 -62 326 -188 485 -280
384 -222 710 -410 815 -470 47 -27 110 -64 140 -82 l55 -33 3 1382 2 1383 -27
20 c-15 11 -106 65 -203 121 -163 94 -449 259 -1000 577 -124 72 -281 163
-350 202 -69 40 -357 206 -640 370 -283 164 -645 373 -805 465 -159 92 -396
228 -526 303 -129 75 -243 139 -252 143 -16 6 -17 -88 -17 -1379z m198 998 l3
-35 -35 17 c-31 16 -36 23 -36 56 l0 39 33 -21 c25 -15 33 -28 35 -56z m0
-103 c4 -36 -7 -40 -43 -16 -19 12 -25 25 -25 51 l0 35 33 -19 c24 -14 33 -27
35 -51z m0 -106 l3 -39 -33 21 c-26 17 -34 29 -36 58 l-3 37 33 -20 c27 -15
34 -26 36 -57z m316 -53 c36 -23 50 -38 52 -57 1 -14 1 -26 0 -26 -4 0 -158
85 -186 102 -12 8 -20 24 -20 41 l0 28 53 -29 c28 -16 74 -42 101 -59z m-314
-50 c0 -38 -1 -38 -40 -18 -25 13 -30 22 -30 50 l0 35 35 -17 c30 -14 35 -22
35 -50z m-30 -68 c25 -13 30 -22 30 -51 0 -20 -3 -34 -7 -32 -61 29 -63 32
-63 65 0 38 1 38 40 18z m28 -161 l3 -37 -33 21 c-26 17 -34 29 -36 58 l-3 37
33 -21 c26 -17 34 -29 36 -58z m1352 33 c0 -2 -17 -19 -37 -38 l-38 -34 34 38
c33 34 41 42 41 34z m-1352 -132 l3 -35 -35 17 c-32 15 -36 21 -36 56 l0 39
33 -21 c25 -15 33 -28 35 -56z m659 -26 c29 -16 85 -48 125 -72 164 -99 208
-119 226 -105 15 12 16 11 4 -4 -12 -14 -6 -21 52 -53 58 -32 66 -40 66 -67
l0 -29 -57 32 c-32 18 -70 40 -85 49 -25 14 -29 14 -45 -4 -10 -10 -14 -20 -8
-23 6 -2 51 -28 100 -56 81 -48 90 -56 93 -85 2 -18 1 -32 -2 -32 -3 0 -58 31
-123 69 l-118 69 -22 -20 -23 -21 56 -34 c30 -18 57 -33 60 -33 2 0 48 -26
102 -58 53 -32 143 -85 200 -116 94 -53 102 -61 102 -88 l0 -29 -57 32 c-32
18 -65 38 -74 46 -8 7 -18 13 -22 13 -3 0 -56 29 -118 65 -61 36 -113 65 -114
65 -1 0 -39 22 -85 50 -45 27 -86 47 -91 44 -5 -3 -9 0 -9 6 0 6 -11 16 -25
22 -24 11 -44 52 -32 65 3 3 27 -7 53 -21 44 -25 48 -25 66 -9 10 9 17 20 16
25 -2 4 -84 54 -183 111 -170 97 -180 104 -183 135 -3 32 5 40 24 23 5 -5 95
-59 201 -119 181 -104 193 -109 208 -92 12 14 13 19 3 27 -16 12 -222 132
-340 199 -78 44 -88 52 -88 77 l0 29 48 -27 c26 -15 70 -40 99 -56z m613 78
c0 -2 -17 -19 -37 -38 l-38 -34 34 38 c33 34 41 42 41 34z m-272 -164 l63 -35
27 23 27 24 -23 -27 -24 -26 59 -34 c32 -19 97 -56 145 -84 82 -46 87 -51 88
-82 l0 -34 -52 31 c-29 17 -169 97 -310 178 -251 145 -257 149 -258 180 l0 32
98 -56 c53 -30 125 -71 160 -90z m192 84 c0 -2 -17 -19 -37 -38 l-38 -34 34
38 c33 34 41 42 41 34z m-1192 -81 l3 -39 -33 21 c-26 17 -34 29 -36 58 l-3
37 33 -20 c27 -15 34 -26 36 -57z m0 -120 l3 -39 -33 21 c-26 17 -34 29 -36
58 l-3 37 33 -20 c27 -15 34 -26 36 -57z m2 -108 l0 -37 -35 20 c-29 17 -35
27 -35 55 l0 34 35 -17 c31 -15 35 -21 35 -55z m647 -34 c62 -35 116 -64 120
-64 20 -1 53 -41 53 -64 0 -31 -1 -31 -49 -7 l-38 20 -49 -50 c-40 -41 -46
-51 -34 -59 8 -6 50 -31 93 -55 69 -41 77 -49 77 -75 0 -17 -2 -30 -3 -30 -2
0 -73 40 -158 89 -142 82 -154 91 -157 120 -2 17 0 31 5 31 4 0 33 -16 63 -35
l54 -35 48 47 c26 26 48 51 48 55 0 4 -33 26 -72 49 -134 76 -148 87 -148 115
0 33 1 32 147 -52z m589 17 c7 -7 390 -229 921 -535 66 -37 72 -44 73 -73 l0
-32 -32 18 c-18 11 -78 45 -133 76 -55 32 -112 65 -127 74 -32 19 -231 134
-303 174 -78 45 -377 218 -402 234 -16 9 -23 23 -23 43 0 30 8 37 26 21z
m-1238 -79 c4 -36 -7 -40 -43 -16 -19 12 -25 25 -25 51 l0 35 33 -19 c24 -14
33 -27 35 -51z m1358 -113 c77 -44 157 -91 179 -104 90 -51 452 -260 625 -360
243 -142 307 -178 434 -250 100 -57 106 -62 106 -92 l0 -33 -32 19 c-48 26
-413 236 -553 318 -66 38 -196 113 -290 168 -93 54 -228 132 -300 173 -71 42
-170 99 -220 128 -80 46 -90 55 -93 83 -2 17 -1 31 1 31 3 0 67 -36 143 -81z
m-1383 52 c21 -11 27 -21 27 -48 0 -38 -1 -38 -40 -18 -25 13 -30 22 -30 51 0
20 3 34 8 32 4 -2 19 -10 35 -17z m943 -30 c5 -5 115 -69 244 -143 129 -74
339 -195 465 -268 127 -73 244 -141 260 -150 17 -9 56 -32 88 -49 49 -28 57
-37 57 -62 0 -16 -2 -29 -5 -29 -5 0 -156 86 -505 287 -124 71 -315 182 -425
245 -188 108 -200 117 -203 147 -3 31 5 39 24 22z m-946 -86 c25 -13 30 -22
30 -51 l0 -36 -32 19 c-25 14 -34 27 -36 51 -4 37 -2 38 38 17z m1245 -202
c143 -83 305 -176 360 -208 55 -32 129 -75 165 -95 168 -96 587 -338 608 -351
26 -16 33 -75 7 -65 -9 3 -102 56 -208 117 -105 61 -253 146 -327 189 -74 43
-218 126 -320 185 -102 59 -210 121 -240 138 -30 17 -82 47 -115 67 -33 20
-104 61 -157 90 -93 52 -98 57 -98 88 l0 34 33 -20 c17 -11 149 -87 292 -169z
m-667 138 c15 -10 92 -55 172 -101 80 -45 165 -94 190 -109 26 -14 85 -48 133
-76 76 -44 87 -53 87 -77 0 -16 -2 -28 -4 -28 -2 0 -55 30 -117 66 -94 55
-359 208 -471 273 -20 11 -28 24 -28 44 0 32 4 33 38 8z m-550 -97 l3 -37 -33
21 c-26 17 -34 29 -36 58 l-3 37 33 -21 c26 -17 34 -29 36 -58z m1550 -43 c4
-37 0 -37 -57 -3 -51 31 -67 52 -58 77 6 15 12 14 60 -13 43 -24 53 -34 55
-61z m-408 -66 c113 -65 257 -148 320 -185 63 -37 180 -105 260 -150 295 -168
310 -178 310 -211 0 -16 -2 -29 -4 -29 -2 0 -40 21 -83 47 -84 50 -462 268
-825 477 -227 130 -228 130 -228 164 0 33 1 34 23 20 12 -8 114 -68 227 -133z
m-860 55 c41 -24 76 -44 77 -44 5 -4 11 -56 5 -56 -3 0 -50 25 -104 56 -90 51
-98 59 -98 86 0 29 1 30 23 16 12 -8 56 -34 97 -58z m-282 -46 l3 -37 -33 21
c-26 17 -34 29 -36 58 l-3 37 33 -21 c26 -17 34 -29 36 -58z m1967 -155 c160
-91 409 -235 555 -319 146 -85 300 -174 343 -198 82 -47 91 -57 85 -91 -3 -18
-29 -6 -233 112 -126 73 -396 229 -600 347 -203 117 -398 229 -432 249 -57 33
-63 39 -63 70 l0 33 28 -18 c15 -10 158 -93 317 -185z m-727 -147 c63 -36 116
-71 119 -78 2 -7 3 -22 1 -33 -3 -18 -13 -15 -108 41 -58 33 -126 72 -151 87
-365 208 -359 204 -359 238 l0 32 193 -111 c105 -61 243 -140 305 -176z
m-1237 195 c7 -44 -5 -48 -44 -14 -19 16 -27 32 -27 56 l0 33 32 -19 c25 -14
34 -28 39 -56z m59 -48 c0 -16 -4 -29 -10 -29 -5 0 -10 16 -10 36 0 21 4 33
10 29 6 -3 10 -19 10 -36z m-87 12 c22 -12 27 -21 27 -54 l0 -39 -32 19 c-27
15 -34 26 -36 57 -2 21 0 36 5 34 4 -2 20 -10 36 -17z m1537 -213 c129 -75
291 -168 360 -208 69 -40 141 -81 160 -92 119 -67 193 -114 197 -124 2 -7 3
-22 1 -33 -3 -19 -8 -18 -73 21 -106 62 -494 286 -732 422 -210 119 -213 121
-213 154 l0 34 33 -20 c17 -11 138 -80 267 -154z m-949 123 c24 -15 114 -68
199 -116 372 -210 370 -209 370 -240 0 -14 -2 -25 -4 -25 -17 0 -95 54 -90 62
4 7 2 8 -4 4 -7 -4 -60 21 -119 55 -60 34 -126 72 -148 84 -54 31 -249 146
-253 150 -7 7 -9 55 -2 55 3 0 26 -13 51 -29z m-514 -3 c-3 -8 -6 -5 -6 6 -1
11 2 17 5 13 3 -3 4 -12 1 -19z m-72 -14 c19 -12 25 -25 25 -51 l0 -35 -32 21
c-24 14 -34 29 -36 51 -4 34 7 38 43 14z m72 -267 c-1 -45 -3 -5 -3 88 0 94 2
130 3 82 2 -48 2 -125 0 -170z m-72 157 c17 -11 25 -26 25 -45 0 -33 -10 -36
-45 -13 -17 11 -25 26 -25 45 0 33 10 36 45 13z m293 -30 c48 -25 96 -53 107
-63 11 -9 45 -30 75 -45 30 -16 80 -44 110 -61 229 -135 230 -136 230 -161 0
-13 -3 -24 -6 -24 -4 0 -32 16 -64 35 -32 19 -60 35 -62 35 -3 0 -45 24 -95
54 -49 30 -122 71 -161 91 -40 20 -72 40 -72 45 0 5 -10 12 -22 16 -13 4 -49
23 -80 43 -43 26 -58 42 -58 58 0 13 2 23 5 23 3 0 45 -21 93 -46z m2275 -203
c17 -11 88 -51 157 -91 69 -40 139 -80 155 -90 83 -48 152 -87 166 -92 11 -4
15 -15 11 -37 -2 -17 -5 -31 -6 -31 -3 0 -649 371 -798 458 -91 53 -98 59 -98
89 l0 32 190 -110 c105 -60 205 -118 223 -128z m-2666 -13 c-1 -40 -3 -10 -3
67 0 77 1 110 3 73 2 -37 2 -100 0 -140z m1178 -13 c132 -76 254 -146 270
-155 22 -12 31 -25 33 -50 l3 -33 -63 36 c-35 19 -130 74 -213 122 -82 48
-166 96 -185 107 -160 90 -160 90 -160 125 l0 33 38 -23 c20 -13 145 -86 277
-162z m-1082 156 c21 -11 27 -21 27 -48 0 -38 -1 -38 -40 -18 -25 13 -30 22
-30 51 0 20 3 34 8 32 4 -2 19 -10 35 -17z m25 -147 c2 -20 0 -34 -5 -32 -61
29 -63 31 -63 71 l0 39 33 -21 c25 -16 33 -28 35 -57z m2334 -87 c274 -160
546 -316 622 -357 79 -42 84 -48 77 -81 l-6 -26 -95 55 c-52 30 -210 121 -350
202 -488 281 -445 253 -448 289 -2 17 -1 31 1 31 3 0 92 -51 199 -113z m-2361
36 c23 -14 29 -24 29 -51 0 -19 -3 -32 -7 -30 -61 29 -63 32 -63 65 0 38 2 39
41 16z m89 -90 c0 -60 -5 -115 -10 -123 -7 -10 -10 25 -10 108 0 75 4 122 10
122 6 0 10 -42 10 -107z m-85 -19 c19 -12 25 -25 25 -51 0 -19 -3 -33 -7 -31
-61 29 -63 32 -63 65 0 37 9 40 45 17z m667 -56 c68 -39 137 -79 153 -89 17
-10 44 -25 60 -33 17 -9 48 -27 70 -40 22 -14 77 -46 123 -71 74 -42 82 -49
82 -76 0 -17 -3 -28 -7 -26 -5 2 -120 69 -258 149 -137 80 -274 158 -302 174
-44 24 -53 34 -53 57 0 15 2 27 5 27 2 0 59 -32 127 -72z m223 -228 c50 -29
104 -60 120 -70 54 -32 299 -173 337 -194 32 -18 38 -26 38 -54 l0 -34 -32 20
c-43 27 -200 117 -263 153 -27 15 -75 42 -105 61 -31 18 -93 53 -138 78 -76
42 -81 47 -82 78 0 38 -12 41 125 -38z m1845 -283 c0 -2 -15 -16 -32 -33 l-33
-29 29 33 c28 30 36 37 36 29z m-70 -70 c0 -2 -17 -19 -37 -38 l-38 -34 34 38
c33 34 41 42 41 34z m-80 -80 c0 -2 -17 -19 -37 -38 l-38 -34 34 38 c33 34 41
42 41 34z m-80 -80 c0 -2 -17 -19 -37 -38 l-38 -34 34 38 c33 34 41 42 41 34z
m-80 -80 c0 -2 -17 -19 -37 -38 l-38 -34 34 38 c33 34 41 42 41 34z m-80 -80
c0 -2 -17 -19 -37 -38 l-38 -34 34 38 c33 34 41 42 41 34z m-80 -80 c0 -2 -17
-19 -37 -38 l-38 -34 34 38 c33 34 41 42 41 34z m-80 -80 c0 -2 -17 -19 -37
-38 l-38 -34 34 38 c33 34 41 42 41 34z m-80 -80 c0 -2 -17 -19 -37 -38 l-38
-34 34 38 c33 34 41 42 41 34z m-80 -80 c0 -2 -15 -16 -32 -33 l-33 -29 29 33
c28 30 36 37 36 29z"/>
<path d="M10214 10179 c-3 -6 2 -19 12 -28 21 -19 154 -98 494 -291 80 -45
156 -90 170 -100 14 -9 54 -33 90 -53 36 -19 162 -91 280 -159 118 -69 337
-194 485 -280 149 -85 305 -176 348 -202 44 -25 84 -43 90 -39 7 3 9 3 5 -2
-4 -4 26 -27 66 -51 40 -24 91 -59 111 -79 36 -33 39 -34 57 -19 22 21 24 38
2 30 -8 -3 -13 -2 -10 3 3 4 -2 15 -12 24 -16 14 -478 287 -486 287 -2 0 -56
32 -120 70 -64 39 -118 70 -120 70 -2 0 -92 52 -201 115 -108 63 -199 115
-201 115 -2 0 -34 19 -71 42 -38 23 -97 58 -133 78 -88 50 -501 287 -683 394
-82 47 -153 86 -157 86 -5 0 -12 -5 -16 -11z"/>
<path d="M5720 9712 c0 -22 5 -32 15 -32 19 0 19 19 0 44 -14 19 -15 18 -15
-12z"/>
<path d="M6972 9707 c-9 -11 -10 -17 -2 -22 15 -9 23 -1 18 21 -3 15 -4 16
-16 1z"/>
<path d="M6796 9277 c-55 -177 -108 -350 -119 -384 -12 -41 -23 -60 -31 -57
-14 5 -15 2 -37 -203 -7 -62 -15 -113 -18 -113 -23 1 -28 19 -20 80 4 36 11
111 14 168 7 90 6 102 -9 102 -9 0 -16 -6 -16 -12 0 -7 -7 -71 -15 -143 -8
-71 -15 -153 -15 -181 0 -33 -5 -56 -14 -64 -8 -6 -12 -18 -10 -25 7 -17 -19
-31 -76 -40 -25 -3 -53 -9 -62 -11 -15 -5 -17 3 -17 63 1 37 9 147 20 243 26
242 32 217 -52 225 -38 4 -72 5 -75 2 -5 -4 38 -423 52 -504 5 -31 3 -33 -24
-33 -35 0 -31 -16 -62 270 -11 102 -29 255 -40 340 -11 85 -21 188 -23 227 -2
68 -4 73 -24 73 -25 0 -25 5 3 -220 21 -169 25 -156 -53 -170 -38 -7 -90 -21
-116 -32 -27 -10 -52 -16 -57 -13 -5 3 -11 -3 -13 -12 -4 -14 -5 -13 -6 5 0
12 4 22 10 22 5 0 7 5 4 10 -4 6 -11 8 -16 5 -8 -5 -13 38 -12 108 0 9 -3 17
-7 17 -3 0 -6 9 -6 20 0 11 5 19 11 17 5 -2 9 -12 7 -21 -2 -11 2 -16 10 -14
23 5 158 82 158 89 0 22 -45 13 -94 -18 -38 -23 -62 -32 -76 -28 -11 4 -18 11
-14 16 3 6 1 15 -4 22 -12 16 -22 68 -11 61 5 -3 9 4 9 15 0 24 -16 36 -23 19
-3 -7 -6 -3 -6 9 -1 12 5 24 12 26 10 4 10 6 0 6 -7 1 -13 8 -13 17 0 9 5 12
11 8 9 -5 10 1 5 22 -4 16 -7 34 -8 41 -1 6 -8 9 -17 5 -13 -4 -13 -2 2 15 14
16 15 23 6 29 -8 5 -10 3 -4 -6 6 -10 4 -12 -7 -7 -9 3 -22 0 -29 -6 -7 -7 -5
-1 6 13 11 14 24 28 30 32 6 4 3 20 -7 41 -11 23 -15 49 -11 78 5 42 4 43 -11
24 -12 -16 -15 -17 -16 -4 0 8 5 20 12 27 9 9 2 12 -35 12 -26 0 -47 -1 -47
-2 0 -9 43 -296 60 -401 11 -70 20 -138 20 -152 0 -27 -20 -42 -167 -124 -251
-141 -443 -254 -443 -262 0 -15 29 -22 43 -11 6 5 28 19 47 30 69 39 356 205
385 223 17 10 49 28 73 40 23 12 45 25 48 30 16 27 31 3 41 -68 l11 -77 -38
-37 c-21 -20 -43 -52 -49 -71 -7 -21 -22 -40 -36 -46 -14 -7 -92 -51 -173 -98
-81 -48 -230 -135 -332 -194 -308 -179 -403 -235 -447 -263 -24 -15 -46 -27
-49 -27 -4 0 -21 -11 -38 -24 -17 -13 -41 -26 -52 -30 -12 -3 -30 -16 -40 -28
-11 -12 -13 -18 -5 -13 10 6 12 4 7 -4 -5 -7 -15 -10 -23 -7 -8 4 -61 -21
-121 -55 -105 -60 -162 -99 -146 -99 21 0 -17 -22 -47 -27 -19 -2 -55 -18 -82
-34 -26 -16 -50 -29 -52 -29 -3 0 -23 -11 -45 -25 l-39 -25 -146 80 c-80 44
-147 80 -150 80 -3 0 -5 -6 -5 -14 0 -8 46 -40 103 -71 56 -31 109 -60 117
-65 8 -5 32 -18 53 -29 l37 -21 50 28 c40 22 48 31 43 47 -5 17 -4 18 10 7 14
-12 26 -8 84 24 37 21 84 49 103 64 19 14 54 34 78 45 38 16 47 26 43 47 0 4
6 5 14 2 8 -3 38 7 67 24 99 55 303 174 328 191 14 10 57 35 95 56 39 20 72
40 75 44 3 3 23 15 45 27 58 30 107 58 119 67 26 19 199 117 207 117 5 0 9 4
9 9 0 5 8 11 18 14 9 4 35 17 57 31 22 14 61 37 87 51 26 14 69 38 95 55 26
16 52 30 57 30 13 0 6 -280 -6 -280 -4 -1 -43 -21 -85 -47 -43 -25 -98 -57
-123 -71 -25 -13 -81 -46 -125 -72 -44 -26 -96 -57 -115 -67 -19 -11 -80 -46
-135 -78 -55 -32 -116 -67 -135 -77 -19 -11 -39 -24 -45 -28 -5 -4 -35 -21
-65 -37 -30 -17 -133 -76 -229 -132 -96 -55 -178 -101 -182 -101 -5 0 -9 -4
-9 -10 0 -5 -4 -10 -9 -10 -8 0 -47 -22 -134 -74 -18 -10 -66 -38 -107 -61
-41 -23 -97 -55 -124 -70 -39 -22 -52 -26 -65 -17 -9 6 -32 19 -51 29 -19 9
-37 20 -40 23 -3 4 -34 22 -70 40 -36 19 -66 35 -68 36 -2 1 1 26 6 55 12 63
4 73 -43 53 -18 -7 -134 -37 -259 -67 -203 -48 -226 -52 -226 -36 0 9 18 93
40 185 46 189 26 159 195 295 130 105 203 159 214 159 6 0 75 -38 154 -83 78
-46 152 -89 165 -96 23 -12 47 0 315 156 4 3 3 11 -4 19 -10 12 -17 11 -48 -8
-20 -12 -49 -29 -66 -38 -16 -8 -63 -35 -102 -58 l-73 -43 -37 19 c-55 28
-273 153 -273 157 0 1 22 17 48 34 l48 30 17 103 c21 126 22 280 2 412 -8 55
-17 101 -19 103 -2 2 -68 -5 -146 -17 -140 -21 -145 -21 -438 -5 -163 8 -369
22 -457 30 -526 46 -680 42 -823 -21 -96 -43 -187 -156 -239 -298 -72 -199
-109 -402 -158 -868 l-25 -236 20 -94 c57 -270 140 -594 201 -784 l39 -121 68
-30 c111 -50 225 -76 336 -77 l100 -1 41 55 c23 30 79 116 123 190 l82 135
-438 440 -437 440 437 -435 c241 -239 439 -432 441 -430 47 54 138 201 156
250 13 36 59 139 103 230 70 145 110 238 133 305 6 18 9 15 31 -20 30 -50 30
-61 1 -69 -15 -3 -39 -32 -70 -84 l-47 -79 16 -119 c19 -153 20 -156 47 -148
12 3 23 7 24 8 2 2 -7 29 -18 62 -26 73 -23 209 5 263 40 76 108 101 177 66
l30 -16 -36 -33 c-19 -18 -35 -39 -35 -46 0 -19 61 -150 70 -150 10 0 36 71
60 170 12 47 23 86 24 87 3 4 403 64 436 66 l25 2 -3 -90 c-1 -49 -5 -101 -8
-115 -5 -23 -2 -22 36 15 37 37 41 46 47 108 3 37 9 70 13 72 3 2 35 -14 71
-35 35 -22 70 -39 77 -40 6 0 12 -4 12 -8 0 -8 80 -52 95 -52 5 0 58 29 119
64 61 35 127 73 146 84 19 11 87 50 150 87 63 37 151 88 195 112 109 60 207
119 222 132 7 6 14 11 15 10 8 -3 58 25 58 33 0 4 3 7 8 6 4 -1 18 5 32 14 22
14 124 73 360 208 36 20 129 74 206 118 78 45 149 85 158 88 15 6 16 -8 14
-142 l-3 -147 -115 -67 c-63 -37 -177 -103 -254 -148 -76 -45 -140 -82 -142
-82 -3 0 -46 -25 -96 -56 -50 -30 -109 -65 -131 -77 -22 -12 -47 -26 -56 -32
-9 -5 -66 -39 -126 -74 -61 -35 -122 -72 -137 -82 -15 -11 -29 -19 -32 -19 -3
0 -29 -14 -58 -31 -158 -95 -321 -189 -324 -189 -3 0 -57 -32 -122 -72 -64
-39 -125 -71 -135 -70 -15 1 -60 24 -246 129 l-43 25 24 22 c19 16 26 34 31
80 l6 59 -77 -74 c-42 -41 -62 -58 -45 -39 l32 35 -35 24 c-19 13 -36 22 -38
20 -16 -18 -25 -53 -20 -73 6 -25 15 -31 337 -207 l88 -49 87 53 c48 29 120
71 160 92 39 22 72 43 72 47 0 4 5 8 11 8 6 0 38 16 72 37 34 20 71 41 82 47
11 6 74 43 140 82 66 39 230 135 365 214 135 78 257 151 272 161 15 11 30 19
33 19 3 0 54 29 113 64 232 138 299 176 305 176 4 0 7 -124 7 -276 0 -313 1
-317 77 -384 93 -82 265 -130 466 -130 241 0 442 83 507 210 19 38 20 60 20
670 0 665 1 653 -43 708 -11 14 -12 12 -67 -165 -29 -95 -43 -123 -56 -110 -3
3 13 65 36 138 23 74 60 193 82 264 22 72 55 177 73 235 63 202 96 311 120
390 22 77 22 81 5 90 -10 6 -25 10 -32 10 -8 0 -48 -113 -112 -323z m-979 21
c-3 -8 -6 -5 -6 6 -1 11 2 17 5 13 3 -3 4 -12 1 -19z m98 -578 c-4 -35 -3 -39
4 -20 9 23 9 22 9 -10 -1 -19 4 -62 10 -95 6 -33 15 -82 20 -108 5 -26 5 -50
1 -53 -14 -8 -21 17 -15 54 5 29 4 34 -5 22 -10 -13 -10 -13 -6 1 3 8 1 35 -4
60 -18 84 -21 104 -23 157 0 28 -3 52 -6 52 -4 0 -4 17 -1 38 l5 37 7 -45 c4
-25 6 -65 4 -90z"/>
<path d="M6600 9246 c0 -7 -3 -34 -6 -60 -6 -42 -5 -46 15 -46 18 0 21 6 21
44 0 24 3 51 6 60 4 12 0 16 -15 16 -12 0 -21 -6 -21 -14z"/>
<path d="M5882 8935 c0 -16 2 -22 5 -12 2 9 2 23 0 30 -3 6 -5 -1 -5 -18z"/>
<path d="M12452 8837 c-22 -24 -22 -25 -5 -55 18 -32 33 -41 33 -21 0 5 3 8 8
6 4 -3 12 1 19 8 9 9 6 21 -11 49 l-22 37 -22 -24z"/>
<path d="M12507 8722 c-26 -29 -20 -55 19 -93 l37 -34 -7 57 c-10 91 -19 103
-49 70z"/>
<path d="M5083 8598 c-27 -13 -29 -23 -7 -32 18 -7 66 22 58 35 -7 11 -23 10
-51 -3z"/>
<path d="M12541 8576 c-8 -9 -21 -14 -30 -11 -15 4 -16 -120 -13 -1486 2
-1381 0 -1547 -23 -1601 -6 -16 -4 -16 23 -7 66 23 62 -84 60 1600 -3 1302 -5
1520 -17 1505z"/>
<path d="M5045 8550 c-3 -6 1 -7 9 -4 18 7 21 14 7 14 -6 0 -13 -4 -16 -10z"/>
<path d="M4951 8510 c-19 -17 -32 -32 -29 -35 6 -7 108 47 108 57 0 19 -48 5
-79 -22z"/>
<path d="M4826 8447 c-18 -14 -25 -26 -19 -30 14 -9 75 17 93 37 21 27 -40 20
-74 -7z m9 -17 c-3 -5 -12 -10 -18 -10 -7 0 -6 4 3 10 19 12 23 12 15 0z"/>
<path d="M4685 8370 c-3 -5 -21 -17 -40 -26 -36 -17 -48 -44 -20 -44 24 0 76
30 70 40 -3 5 -1 11 5 15 5 3 10 10 10 16 0 12 -17 12 -25 -1z"/>
<path d="M4535 8278 c-11 -6 -35 -24 -54 -40 -18 -16 -39 -27 -46 -24 -16 6
-58 -32 -49 -45 3 -6 38 8 82 32 86 47 114 68 106 80 -7 12 -15 11 -39 -3z"/>
<path d="M4137 7659 c7 -7 15 -10 18 -7 3 3 -2 9 -12 12 -14 6 -15 5 -6 -5z"/>
<path d="M8185 7401 c-23 -7 -147 -75 -188 -103 -22 -16 -25 -23 -17 -34 20
-23 230 -136 255 -136 28 0 224 112 225 129 0 11 -186 125 -231 141 -13 5 -33
6 -44 3z"/>
<path d="M7773 7169 c-57 -33 -103 -65 -103 -72 0 -7 17 -21 38 -33 20 -11
112 -64 203 -117 111 -65 175 -97 195 -96 35 1 219 109 219 129 0 8 -54 45
-120 83 -66 38 -158 91 -205 118 -46 27 -93 49 -105 49 -11 0 -66 -28 -122
-61z"/>
<path d="M8445 7194 c-22 -13 -66 -38 -97 -55 -32 -18 -58 -37 -58 -44 0 -13
184 -127 237 -147 26 -10 37 -6 113 37 130 74 144 85 128 100 -7 7 -59 40
-116 74 -116 69 -144 74 -207 35z"/>
<path d="M7462 6990 c-56 -33 -102 -66 -102 -73 0 -7 37 -33 83 -59 45 -25
161 -92 257 -147 96 -56 181 -101 189 -101 18 0 204 105 220 124 10 11 6 18
-16 34 -76 53 -487 282 -507 282 -12 0 -68 -27 -124 -60z"/>
<path d="M8715 6990 c-104 -63 -117 -73 -108 -86 11 -16 237 -144 254 -144 21
0 229 122 229 135 0 19 -233 145 -266 144 -16 -1 -65 -23 -109 -49z"/>
<path d="M8361 6939 c-54 -21 -201 -112 -201 -124 0 -19 224 -145 256 -145 14
0 71 25 125 56 106 60 120 81 72 103 -16 7 -64 34 -108 60 -94 57 -112 63
-144 50z"/>
<path d="M7156 6813 c-55 -32 -101 -63 -104 -70 -4 -16 45 -47 348 -220 135
-77 272 -157 305 -177 33 -20 72 -36 87 -36 31 0 228 109 228 126 0 15 -44 43
-335 210 -132 75 -274 157 -315 181 -41 23 -84 43 -95 43 -11 0 -65 -26 -119
-57z"/>
<path d="M9023 6803 c-60 -34 -103 -64 -103 -73 0 -17 227 -150 256 -150 28 1
218 113 222 131 3 19 -216 149 -251 149 -12 0 -68 -26 -124 -57z"/>
<path d="M8580 6709 c-108 -63 -116 -71 -93 -90 47 -40 214 -129 241 -129 33
0 232 108 232 126 0 6 -52 41 -115 78 -80 46 -124 66 -147 65 -21 0 -65 -19
-118 -50z"/>
<path d="M6845 6633 c-55 -31 -103 -61 -107 -67 -10 -14 -4 -18 271 -178 130
-76 245 -138 256 -138 28 0 225 117 225 134 0 8 -62 49 -137 92 -76 43 -190
109 -253 146 -63 37 -124 68 -135 68 -11 0 -65 -26 -120 -57z"/>
<path d="M8180 6677 c-67 -32 -190 -110 -190 -121 0 -18 224 -146 255 -146 35
0 225 109 225 129 0 9 -30 32 -73 55 -39 22 -92 52 -116 68 -49 31 -64 33
-101 15z"/>
<path d="M9380 6647 c-30 -19 -77 -46 -103 -61 -27 -15 -46 -33 -44 -39 5 -18
229 -147 254 -147 11 0 50 16 85 36 34 21 82 48 106 62 24 13 41 29 39 36 -6
18 -230 145 -257 145 -14 1 -50 -14 -80 -32z"/>
<path d="M8887 6522 c-61 -36 -97 -62 -95 -71 3 -15 206 -138 242 -147 26 -6
236 110 236 131 0 19 -223 145 -257 144 -15 0 -72 -26 -126 -57z"/>
<path d="M8510 6503 c-32 -13 -188 -104 -199 -116 -14 -18 -1 -29 122 -100 54
-31 110 -57 125 -57 29 0 223 107 229 126 4 11 -234 155 -253 153 -5 0 -16 -3
-24 -6z"/>
<path d="M9655 6442 c-55 -32 -101 -65 -103 -74 -4 -19 215 -148 251 -148 31
0 222 112 222 130 0 17 -221 150 -250 150 -11 0 -65 -26 -120 -58z"/>
<path d="M8050 6399 c-51 -21 -200 -114 -200 -125 0 -16 229 -146 257 -146 35
-1 223 110 223 130 -1 11 -40 40 -111 81 -122 71 -134 74 -169 60z"/>
<path d="M9206 6343 c-55 -32 -101 -63 -103 -70 -2 -6 29 -30 69 -54 40 -23
90 -52 110 -65 66 -42 78 -41 180 17 51 28 101 59 111 67 16 14 16 16 1 34
-10 10 -21 18 -25 18 -5 0 -50 25 -101 55 -51 30 -104 55 -118 55 -14 0 -70
-26 -124 -57z"/>
<path d="M7481 6276 c-91 -53 -129 -81 -120 -90 24 -23 238 -136 258 -136 28
0 222 107 228 127 4 12 -232 153 -257 153 -8 0 -57 -25 -109 -54z"/>
<path d="M8766 6293 c-22 -14 -62 -38 -90 -53 -32 -18 -51 -35 -51 -46 0 -12
33 -37 100 -76 143 -82 145 -82 207 -49 125 67 163 90 166 104 2 9 -38 38
-111 81 -129 75 -159 80 -221 39z"/>
<path d="M10050 6305 c-14 -8 -32 -17 -40 -21 -56 -26 -150 -89 -150 -100 0
-20 19 -27 38 -12 15 11 15 11 5 -3 -11 -13 2 -23 89 -72 56 -31 112 -57 126
-57 33 0 222 110 222 130 0 16 -6 20 -153 101 -96 54 -101 55 -137 34z m-70
-58 c0 -2 -15 -16 -32 -33 l-33 -29 29 33 c28 30 36 37 36 29z"/>
<path d="M8267 6164 c-70 -40 -97 -61 -95 -72 3 -16 191 -132 237 -147 15 -5
51 10 131 56 61 35 110 68 110 75 0 17 -226 144 -258 144 -15 0 -71 -25 -125
-56z"/>
<path d="M9518 6162 c-58 -34 -98 -63 -98 -73 0 -18 227 -149 256 -149 27 1
218 115 222 132 1 8 -14 23 -35 35 -21 11 -74 41 -118 67 -44 25 -91 46 -105
45 -14 0 -69 -26 -122 -57z m312 -65 c0 -2 -12 -14 -27 -28 l-28 -24 24 28
c23 25 31 32 31 24z m-100 -101 c0 -2 -8 -10 -17 -17 -16 -13 -17 -12 -4 4 13
16 21 21 21 13z"/>
<path d="M5152 6158 c4 -38 13 -45 243 -178 88 -51 207 -121 265 -156 l105
-63 25 22 25 22 -19 -23 c-11 -12 -17 -24 -15 -26 10 -8 196 -119 329 -196 80
-46 188 -109 240 -140 52 -31 140 -83 195 -115 55 -32 136 -79 180 -105 44
-27 175 -103 290 -170 116 -68 230 -135 255 -150 41 -25 118 -70 465 -273 66
-39 168 -99 226 -133 58 -35 126 -72 150 -83 65 -30 133 -71 142 -87 4 -8 12
-14 16 -14 5 0 82 -43 172 -97 90 -53 227 -133 304 -178 77 -45 192 -112 255
-150 63 -37 131 -76 150 -87 19 -11 40 -23 45 -27 6 -4 33 -20 60 -36 l50 -28
-60 64 c-55 58 -52 56 26 -16 78 -73 146 -122 192 -138 16 -6 17 -2 12 51 -5
41 -13 62 -28 74 -12 10 -25 18 -30 18 -4 0 -25 11 -46 25 -22 13 -145 85
-273 158 -128 74 -336 194 -463 267 -126 73 -249 144 -273 158 -23 13 -49 21
-57 18 -8 -3 -14 -1 -12 5 2 13 -123 89 -548 334 -170 98 -377 218 -460 265
-82 48 -285 165 -450 260 -165 95 -313 181 -330 190 -16 10 -133 77 -260 150
-126 72 -234 135 -240 139 -5 5 -35 22 -65 38 -30 17 -152 86 -270 155 -391
227 -499 288 -510 288 -7 0 -10 -13 -8 -32z m2942 -1699 c-3 -5 -11 -9 -17 -8
-8 0 -8 2 1 6 10 4 10 8 0 21 -12 15 -11 16 4 3 10 -7 15 -17 12 -22z m16 -39
c0 -5 -2 -10 -4 -10 -3 0 -8 5 -11 10 -3 6 -1 10 4 10 6 0 11 -4 11 -10z"/>
<path d="M7778 6084 c-54 -31 -98 -62 -98 -70 0 -13 40 -38 355 -219 218 -125
626 -361 872 -503 224 -129 266 -152 288 -152 9 0 63 27 121 61 83 49 102 64
95 76 -5 9 -100 69 -212 133 -192 111 -451 260 -914 528 -110 63 -234 135
-275 159 -43 24 -88 43 -105 43 -18 0 -69 -22 -127 -56z"/>
<path d="M9065 6103 c-99 -58 -135 -83 -135 -92 0 -9 179 -118 232 -142 23
-10 34 -8 79 16 91 47 173 100 173 110 0 19 -226 145 -258 144 -17 0 -58 -16
-91 -36z"/>
<path d="M10355 6120 c-59 -28 -178 -104 -182 -115 -1 -5 12 -19 30 -29 136
-81 206 -116 229 -116 25 0 187 86 218 116 18 17 10 26 -57 62 -27 15 -79 44
-115 65 -36 20 -69 37 -74 37 -5 0 -27 -9 -49 -20z m261 -122 l29 -33 -32 29
c-31 28 -38 36 -30 36 2 0 16 -15 33 -32z"/>
<path d="M8581 5982 c-52 -31 -96 -62 -99 -69 -2 -6 51 -44 118 -83 99 -59
126 -71 148 -65 42 10 212 114 212 130 0 20 -220 145 -256 145 -17 0 -67 -23
-123 -58z"/>
<path d="M9833 5980 c-57 -33 -103 -66 -103 -73 0 -7 54 -43 121 -81 95 -54
126 -67 148 -63 39 8 205 110 209 128 3 18 -220 149 -253 149 -11 0 -66 -27
-122 -60z"/>
<path d="M9348 5903 c-54 -32 -100 -63 -102 -70 -5 -13 227 -153 254 -153 23
0 230 120 230 134 0 17 -229 146 -259 146 -14 0 -70 -26 -123 -57z m242 -46
c0 -2 -12 -14 -27 -28 l-28 -24 24 28 c23 25 31 32 31 24z m-80 -80 c0 -2 -12
-14 -27 -28 l-28 -24 24 28 c23 25 31 32 31 24z"/>
<path d="M10680 5940 c0 -5 -4 -9 -8 -7 -16 4 -182 -95 -182 -108 0 -8 33 -33
73 -56 39 -23 89 -52 110 -66 51 -32 83 -32 145 3 l51 29 -27 30 -27 30 31
-28 31 -27 47 26 c30 17 46 32 44 42 -5 24 -216 141 -255 142 -18 0 -33 -4
-33 -10z m90 -95 c13 -14 21 -25 18 -25 -2 0 -15 11 -28 25 -13 14 -21 25 -18
25 2 0 15 -11 28 -25z"/>
<path d="M8895 5802 c-55 -32 -100 -64 -100 -71 0 -15 230 -151 254 -151 18 0
213 109 223 124 4 6 2 16 -5 23 -29 28 -224 133 -247 132 -14 0 -70 -26 -125
-57z"/>
<path d="M10148 5799 c-89 -50 -106 -64 -99 -77 13 -24 224 -142 252 -142 27
0 221 109 226 127 5 14 -226 153 -253 153 -11 0 -67 -28 -126 -61z"/>
<path d="M9665 5723 c-55 -32 -101 -65 -102 -73 -4 -17 222 -150 253 -150 27
1 218 113 222 131 3 18 -215 149 -250 149 -13 0 -68 -26 -123 -57z"/>
<path d="M10958 5745 c-20 -14 -39 -25 -42 -25 -12 0 -116 -71 -116 -79 0 -7
155 -102 227 -140 26 -13 76 -4 66 12 -3 5 -1 7 5 4 10 -7 139 61 174 91 25
21 14 31 -111 102 -120 67 -149 72 -203 35z m-18 -70 c13 -14 21 -25 18 -25
-2 0 -15 11 -28 25 -13 14 -21 25 -18 25 2 0 15 -11 28 -25z m70 -70 c13 -14
21 -25 18 -25 -2 0 -15 11 -28 25 -13 14 -21 25 -18 25 2 0 15 -11 28 -25z"/>
<path d="M0 5332 l0 -368 42 -24 c24 -13 202 -116 397 -228 195 -113 363 -207
373 -210 14 -3 18 2 19 24 3 97 52 323 106 497 22 71 33 121 27 126 -5 5 -85
53 -179 107 -93 53 -258 148 -365 210 -275 159 -408 234 -414 234 -3 0 -6
-166 -6 -368z"/>
<path d="M9276 5659 c-91 -49 -161 -95 -164 -110 -3 -17 221 -149 252 -149 33
0 226 115 226 134 0 16 -228 146 -255 146 -11 0 -38 -9 -59 -21z m74 -42 c0
-2 -12 -14 -27 -28 l-28 -24 24 28 c23 25 31 32 31 24z m-80 -80 c0 -2 -12
-14 -27 -28 l-28 -24 24 28 c23 25 31 32 31 24z"/>
<path d="M10535 5659 c-108 -58 -175 -101 -175 -113 0 -17 224 -146 254 -146
35 0 227 112 223 130 -2 15 -202 136 -240 145 -13 3 -39 -4 -62 -16z"/>
<path d="M10060 5587 c-97 -51 -190 -111 -187 -120 6 -19 230 -146 257 -146
31 -1 232 117 227 132 -5 17 -229 147 -252 147 -11 0 -31 -6 -45 -13z"/>
<path d="M11218 5532 c-103 -59 -118 -80 -73 -100 35 -16 40 -15 24 6 -11 15
-11 15 1 4 8 -7 15 -18 15 -24 0 -12 163 -108 185 -108 24 0 230 119 230 133
0 12 -24 28 -173 113 -33 19 -71 34 -85 33 -15 0 -71 -26 -124 -57z"/>
<path d="M9525 5441 c-55 -33 -100 -65 -100 -72 0 -17 223 -149 253 -149 28 0
234 119 229 133 -5 17 -236 147 -260 147 -12 -1 -67 -27 -122 -59z"/>
<path d="M10838 5472 c-78 -42 -168 -100 -168 -110 0 -14 373 -224 397 -224
12 0 67 25 123 56 106 60 122 83 75 104 -14 6 -94 52 -177 101 -84 48 -162 91
-174 95 -14 4 -40 -4 -76 -22z"/>
<path d="M10330 5335 c-59 -34 -95 -61 -95 -71 0 -10 47 -44 130 -92 72 -41
183 -106 248 -143 66 -39 131 -69 146 -69 27 0 231 114 231 130 0 4 -114 74
-252 154 -175 101 -262 146 -283 146 -18 0 -69 -23 -125 -55z"/>
<path d="M9899 5292 c-105 -56 -154 -89 -157 -104 -2 -11 39 -40 135 -95 474
-274 545 -313 568 -313 36 0 226 111 223 129 -4 20 -676 411 -707 411 -5 0
-33 -13 -62 -28z"/>
<path d="M12247 5162 c-81 -48 -164 -96 -185 -106 -20 -10 -82 -46 -137 -79
-55 -33 -136 -80 -180 -105 -135 -76 -280 -159 -515 -295 -124 -71 -328 -189
-455 -262 -126 -73 -329 -190 -450 -260 -121 -71 -266 -154 -322 -187 l-101
-59 9 -32 c5 -17 9 -44 9 -59 0 -16 3 -28 6 -28 5 0 271 147 289 160 6 4 35
21 65 37 30 17 152 85 270 153 508 289 634 361 710 403 30 16 66 37 80 46 14
9 50 30 80 45 30 16 66 36 80 45 14 9 37 23 53 31 15 7 27 17 27 22 0 4 6 8
13 8 16 0 44 15 302 163 77 44 174 99 215 122 41 23 93 52 115 65 22 12 47 28
55 34 8 7 44 28 80 46 98 50 120 67 120 98 0 15 -6 34 -13 43 -13 16 -50 39
-64 39 -4 0 -75 -40 -156 -88z m-537 -342 c0 -5 -5 -10 -11 -10 -5 0 -7 5 -4
10 3 6 8 10 11 10 2 0 4 -4 4 -10z"/>
<path d="M9378 5197 c-37 -23 -81 -50 -98 -59 -16 -9 -30 -24 -30 -31 0 -17
224 -147 253 -147 31 0 227 112 227 130 0 9 -43 39 -105 74 -58 32 -108 62
-111 67 -12 20 -72 5 -136 -34z"/>
<path d="M9573 4944 c-35 -19 -63 -39 -63 -43 0 -4 38 -29 85 -55 l85 -48 62
34 c34 19 63 39 65 45 3 9 -152 103 -168 103 -2 0 -32 -16 -66 -36z"/>
<path d="M9928 4917 c-32 -18 -58 -37 -58 -44 0 -6 38 -32 85 -58 l85 -46 65
36 c36 20 65 40 65 43 0 10 -156 102 -172 102 -7 -1 -39 -15 -70 -33z"/>
<path d="M9774 4827 c-28 -18 -52 -36 -54 -41 -3 -12 135 -97 159 -99 20 -1
131 61 131 73 0 12 -151 100 -170 99 -8 0 -38 -15 -66 -32z"/>
<path d="M9973 4707 c-29 -18 -52 -36 -52 -42 -1 -12 145 -95 166 -95 15 0
120 57 128 70 7 12 -144 100 -170 99 -11 0 -43 -14 -72 -32z"/>
<path d="M7385 4688 c-11 -6 -22 -14 -25 -18 -3 -4 -15 -12 -28 -19 -25 -13
-21 -31 6 -31 22 0 112 57 112 70 0 13 -40 12 -65 -2z"/>
<path d="M7460 4609 c-52 -34 -61 -49 -28 -49 27 1 120 50 126 68 7 23 -52 11
-98 -19z"/>
<path d="M7567 4550 c-26 -16 -47 -34 -47 -40 0 -16 40 -11 68 9 15 10 37 22
50 25 12 4 22 14 22 22 0 23 -43 16 -93 -16z"/>
<path d="M7671 4489 c-58 -38 -57 -37 -36 -45 21 -8 125 45 125 64 0 21 -44
13 -89 -19z"/>
<path d="M7778 4430 c-52 -33 -61 -50 -25 -50 25 0 117 55 117 70 0 19 -45 9
-92 -20z"/>
<path d="M7880 4369 c-50 -34 -61 -49 -33 -49 26 0 123 53 123 68 0 21 -44 13
-90 -19z"/>
<path d="M6470 4264 c0 -8 5 -25 11 -36 8 -15 8 -27 -2 -45 l-14 -25 -300 7
c-165 3 -313 9 -329 12 -25 5 -28 3 -21 -13 15 -34 17 -91 5 -114 -6 -12 -10
-23 -8 -25 2 -2 155 -6 340 -10 337 -8 337 -8 412 16 79 25 88 33 79 68 -5 18
-14 21 -72 23 l-66 2 63 3 c54 3 62 6 52 18 -9 10 -33 15 -78 15 -63 0 -64 1
-48 18 15 17 15 21 0 50 -8 18 -13 36 -9 42 3 5 1 10 -4 10 -6 0 -11 -7 -11
-16z m-452 -118 c73 -2 136 -7 140 -11 4 -4 -64 -5 -150 -3 -113 3 -161 8
-170 17 -11 11 -7 12 17 7 17 -4 90 -8 163 -10z m255 -13 c-7 -2 -19 -2 -25 0
-7 3 -2 5 12 5 14 0 19 -2 13 -5z m225 -8 c3 -3 -35 -5 -84 -4 -54 1 -79 4
-64 8 26 8 140 4 148 -4z"/>
<path d="M6397 4211 c-4 -17 -3 -21 5 -13 5 5 8 16 6 23 -3 8 -7 3 -11 -10z"/>
<path d="M9775 3737 c-67 -41 -70 -44 -80 -94 -14 -69 -25 -77 -25 -17 l0 49
-74 0 -74 0 -6 -54 c-7 -62 -4 -67 62 -77 57 -8 109 7 212 65 78 44 85 50 83
77 -3 49 -14 94 -21 94 -4 0 -38 -20 -77 -43z"/>
<path d="M349 3653 c-24 -14 -68 -39 -96 -56 l-53 -31 0 -848 0 -847 78 -44
c42 -24 169 -97 282 -162 259 -150 337 -194 377 -214 l32 -16 1 -717 0 -718
230 0 230 0 0 388 c1 562 4 749 12 758 8 8 119 -46 153 -74 11 -10 31 -23 45
-31 14 -8 106 -62 205 -119 99 -57 200 -115 225 -129 25 -14 86 -50 137 -79
50 -30 94 -54 99 -54 4 0 49 24 101 53 l93 52 0 848 c0 563 -3 846 -10 842 -5
-3 -10 -1 -10 5 0 6 -12 16 -27 22 -16 7 -68 37 -118 67 -105 63 -257 151
-261 151 -1 0 -69 40 -151 88 -81 49 -173 102 -203 119 -30 16 -97 55 -148 86
-51 32 -95 57 -97 57 -2 0 -48 26 -102 58 -54 32 -186 110 -293 172 -107 62
-228 133 -267 157 -40 23 -75 43 -77 43 -2 0 -41 23 -85 50 -44 28 -83 50 -86
50 -3 0 -40 21 -83 46 -42 26 -80 48 -83 50 -3 2 -25 -9 -50 -23z m2121 -1216
c0 -1 -53 -54 -117 -117 l-118 -115 115 118 c107 109 120 122 120 114z m-240
-240 c0 -2 -17 -19 -37 -38 l-38 -34 34 38 c33 34 41 42 41 34z m-80 -80 c0
-2 -17 -19 -37 -38 l-38 -34 34 38 c33 34 41 42 41 34z m-80 -80 c0 -2 -17
-19 -37 -38 l-38 -34 34 38 c33 34 41 42 41 34z m-80 -80 c0 -2 -17 -19 -37
-38 l-38 -34 34 38 c33 34 41 42 41 34z m-80 -80 c0 -2 -17 -19 -37 -38 l-38
-34 34 38 c33 34 41 42 41 34z m-80 -80 c0 -2 -17 -19 -37 -38 l-38 -34 34 38
c33 34 41 42 41 34z m-80 -81 c0 -2 -8 -10 -17 -17 -16 -13 -17 -12 -4 4 13
16 21 21 21 13z"/>
<path d="M7732 3403 c-60 -18 -146 -90 -158 -133 -5 -20 0 -16 24 16 60 82
149 121 257 112 39 -3 43 -1 28 9 -22 17 -85 15 -151 -4z"/>
<path d="M10020 3406 c62 -23 138 -76 160 -110 16 -27 29 -106 17 -106 -2 0
-23 18 -48 41 -91 84 -223 127 -419 136 -156 6 -282 -17 -395 -72 -69 -35
-135 -91 -135 -116 0 -18 61 -69 112 -95 88 -44 190 -65 353 -71 131 -4 163
-2 250 17 55 12 110 23 122 24 11 0 19 4 17 7 -6 11 24 19 43 12 11 -4 14 -3
9 5 -5 8 -2 10 8 6 22 -9 83 32 111 74 43 63 29 119 -43 184 -40 37 -136 79
-175 77 -17 0 -14 -4 13 -13z m-290 -133 l55 -58 -50 46 c-27 26 -56 45 -63
44 -7 -2 -8 -1 -2 2 5 2 8 9 4 14 -12 21 5 6 56 -48z m87 21 c-3 -3 -12 -4
-19 -1 -8 3 -5 6 6 6 11 1 17 -2 13 -5z m-360 -30 c-3 -3 -12 -4 -19 -1 -8 3
-5 6 6 6 11 1 17 -2 13 -5z m93 2 c0 -2 -9 -6 -20 -9 -11 -3 -18 -1 -14 4 5 9
34 13 34 5z m-70 -26 c0 -5 -2 -10 -4 -10 -3 0 -8 5 -11 10 -3 6 -1 10 4 10 6
0 11 -4 11 -10z m450 -6 c0 -8 -5 -12 -10 -9 -6 4 -8 11 -5 16 9 14 15 11 15
-7z m-75 -14 c10 -11 14 -20 9 -20 -5 0 -15 9 -22 20 -7 11 -11 20 -9 20 2 0
12 -9 22 -20z m-24 -7 c13 -16 12 -17 -3 -4 -10 7 -18 15 -18 17 0 8 8 3 21
-13z m-1 -38 c19 -19 32 -35 29 -35 -3 0 -20 16 -39 35 -19 19 -32 35 -29 35
3 0 20 -16 39 -35z m-473 -27 c2 -17 0 -19 -7 -8 -5 8 -6 18 -4 22 8 12 10 10
11 -14z m689 -44 c-11 -8 -25 -14 -30 -13 -6 0 -1 5 12 11 12 6 22 16 22 21 0
6 3 7 7 3 5 -4 -1 -14 -11 -22z m-531 -4 c13 -6 15 -9 5 -9 -8 0 -22 4 -30 9
-18 12 -2 12 25 0z m430 -23 c4 5 5 2 1 -5 -7 -11 -11 -10 -25 2 -10 9 -21 13
-26 9 -4 -5 -5 -2 -1 5 7 11 11 10 25 -2 10 -9 21 -13 26 -9z"/>
<path d="M4389 3107 c-35 -18 -65 -32 -67 -33 -2 -1 71 -123 162 -270 91 -148
167 -273 169 -277 1 -5 32 -12 69 -17 115 -14 264 21 447 107 80 37 93 45 80
57 -8 7 -169 102 -359 211 -190 109 -366 210 -391 225 l-46 28 -64 -31z"/>
<path d="M10041 2493 c-31 -63 -38 -151 -11 -152 20 0 40 -16 40 -32 0 -10 5
-18 12 -16 7 1 12 -5 13 -13 0 -8 9 -19 21 -25 11 -5 19 -16 16 -23 -3 -10 2
-10 25 0 101 43 127 146 56 220 -36 38 -90 71 -106 65 -6 -2 -20 0 -29 5 -14
7 -21 1 -37 -29z"/>
<path d="M5900 2019 c-124 -82 -258 -171 -299 -196 -68 -43 -72 -48 -55 -61
17 -12 16 -13 -18 -11 -20 2 -41 -1 -45 -5 -5 -5 -2 -6 6 -1 10 5 12 4 7 -4
-4 -6 -11 -9 -16 -6 -4 3 -48 -18 -97 -46 -328 -191 -511 -269 -710 -304 -114
-20 -175 -19 -268 5 -98 25 -132 46 -222 133 l-72 71 -198 -42 c-109 -23 -216
-47 -237 -53 l-39 -11 6 -261 c12 -472 27 -980 33 -1104 l6 -123 69 0 c77 0
43 -16 359 167 85 50 200 116 255 147 55 31 107 61 115 66 8 5 44 26 80 46
114 65 404 234 420 244 32 20 238 138 340 194 41 23 120 68 175 101 55 32 144
85 198 116 l99 58 52 -29 c29 -17 55 -30 59 -30 3 0 2 15 -3 33 -31 121 -111
489 -108 497 2 5 77 -34 168 -86 91 -53 190 -109 220 -126 30 -17 60 -34 65
-38 6 -4 116 -68 245 -142 207 -119 584 -337 1010 -583 74 -43 236 -137 360
-208 124 -71 239 -138 255 -147 17 -10 133 -77 258 -149 l228 -131 642 0 642
0 -58 35 c-32 19 -60 35 -63 35 -2 0 -37 20 -77 44 -39 24 -164 96 -277 161
-218 126 -427 246 -629 363 -68 40 -126 72 -131 72 -4 0 -46 25 -95 55 -48 30
-91 55 -95 55 -9 0 -115 62 -275 160 -60 38 -135 81 -165 96 -30 15 -57 31
-60 35 -3 4 -41 27 -85 51 -64 36 -296 169 -500 288 -16 10 -118 68 -225 130
-107 62 -208 121 -225 130 -231 133 -500 288 -535 308 -25 14 -93 54 -153 89
-59 35 -108 63 -110 63 -1 -1 -103 -68 -227 -151z m-460 -332 c0 -2 -10 -12
-22 -23 l-23 -19 19 23 c18 21 26 27 26 19z m-1020 -1213 c0 -8 -19 -13 -24
-6 -3 5 1 9 9 9 8 0 15 -2 15 -3z"/>
<path d="M11335 2103 c-33 -20 -134 -79 -225 -131 -91 -52 -208 -120 -260
-150 -102 -59 -496 -286 -807 -466 -106 -60 -190 -113 -185 -117 18 -17 915
-532 927 -532 6 0 55 26 110 58 55 32 199 115 320 185 121 70 306 177 410 237
105 60 298 172 430 248 132 75 251 144 264 152 l23 15 -43 25 c-24 14 -57 33
-74 43 -16 9 -163 94 -325 187 -162 94 -339 196 -392 227 -53 31 -101 56 -105
56 -4 -1 -35 -17 -68 -37z m196 -85 c69 -40 258 -149 422 -243 163 -93 296
-173 297 -177 0 -3 -48 -34 -107 -68 -142 -82 -161 -93 -203 -118 l-36 -21
-118 69 c-65 39 -120 70 -122 70 -2 0 -25 13 -51 28 -27 16 -109 64 -183 107
-74 43 -151 87 -170 98 l-35 21 20 -25 c11 -13 2 -8 -20 12 -22 20 -69 53
-105 74 -82 48 -78 44 -58 59 10 7 15 16 11 20 -4 4 -1 5 7 2 8 -3 80 33 160
79 80 46 150 84 156 84 6 1 67 -32 135 -71z m-508 -175 c3 -5 -8 -8 -23 -8
-15 0 -26 3 -23 8 2 4 13 7 23 7 10 0 21 -3 23 -7z m-73 -17 c0 -2 -7 -7 -16
-10 -8 -3 -12 -2 -9 4 6 10 25 14 25 6z m60 -16 c0 -5 -2 -10 -4 -10 -3 0 -8
5 -11 10 -3 6 -1 10 4 10 6 0 11 -4 11 -10z m-141 -43 c-8 -7 -23 -16 -34 -20
-13 -5 -10 1 10 17 31 25 48 28 24 3z m295 -2 c25 -19 9 -19 -24 0 -14 8 -19
14 -10 14 8 0 24 -6 34 -14z m-361 -40 c-3 -9 -8 -14 -10 -11 -3 3 -2 9 2 15
9 16 15 13 8 -4z m447 -17 c0 -9 -3 -9 -11 -1 -6 6 -17 10 -23 9 -6 -2 -8 -1
-3 1 4 3 4 9 1 15 -4 6 2 5 15 -1 11 -7 21 -17 21 -23z m94 -60 c-3 -4 -11 -8
-17 -8 -7 0 -6 4 3 10 13 8 12 10 -4 10 -11 0 -16 3 -12 7 4 4 -8 13 -26 19
-20 8 -26 13 -14 13 16 1 17 3 5 19 -7 9 6 -1 29 -22 22 -22 39 -43 36 -48z
m-594 52 c-24 -15 -36 -11 -14 4 10 8 21 12 24 10 2 -3 -2 -9 -10 -14z m511
-20 c5 0 9 -4 9 -10 0 -14 -13 -12 -36 6 -17 14 -17 15 -1 10 10 -3 23 -6 28
-6z m-579 -25 c0 -5 -5 -10 -11 -11 -8 -2 -7 -1 0 3 8 4 7 8 -2 15 -11 8 -11
9 -1 6 8 -2 14 -8 14 -13z m623 -15 c-3 -5 -11 -10 -16 -10 -6 0 -7 5 -4 10 3
6 11 10 16 10 6 0 7 -4 4 -10z m-670 -10 c3 -6 -1 -7 -9 -4 -18 7 -21 14 -7
14 6 0 13 -4 16 -10z m695 -4 c0 -2 -7 -7 -16 -10 -8 -3 -12 -2 -9 4 6 10 25
14 25 6z m-710 -10 c0 -2 -7 -6 -15 -10 -8 -3 -15 -1 -15 4 0 6 7 10 15 10 8
0 15 -2 15 -4z m600 -21 c-7 -9 -15 -13 -19 -10 -3 3 1 10 9 15 21 14 24 12
10 -5z m70 11 c0 -5 -148 -96 -157 -96 -3 0 0 7 7 15 7 8 18 15 25 15 7 0 25
10 41 23 15 12 39 27 53 34 32 14 31 14 31 9z m310 -88 c58 -33 138 -79 177
-102 40 -22 73 -44 73 -47 0 -8 -414 -249 -428 -249 -6 0 -71 35 -144 78 -73
44 -156 92 -185 108 l-52 30 47 24 c26 14 90 50 142 81 197 117 235 138 250
138 8 1 62 -27 120 -61z m-1085 43 c3 -6 18 -16 33 -24 15 -7 142 -80 282
-161 140 -81 307 -177 370 -214 168 -96 159 -87 120 -110 l-32 -20 -52 30
c-28 17 -71 42 -96 56 -25 13 -112 64 -195 112 -82 48 -224 130 -315 182 -91
52 -175 101 -187 108 l-22 14 27 17 c30 20 58 24 67 10z m200 -21 c3 -6 -1 -7
-9 -4 -18 7 -21 14 -7 14 6 0 13 -4 16 -10z m55 -30 c8 -5 11 -10 5 -10 -5 0
-17 5 -25 10 -8 5 -10 10 -5 10 6 0 17 -5 25 -10z m349 -4 c-13 -11 -89 -55
-89 -51 0 7 73 55 84 55 5 0 7 -2 5 -4z m-733 -25 c5 -5 81 -51 169 -102 177
-102 167 -96 458 -262 114 -66 205 -122 202 -127 -2 -4 -18 -13 -35 -20 -29
-12 -36 -9 -138 50 -59 34 -132 76 -162 92 -30 17 -71 40 -90 52 -19 13 -140
83 -268 157 -231 132 -233 134 -212 151 24 19 60 24 76 9z m449 -11 c3 -6 -1
-7 -9 -4 -18 7 -21 14 -7 14 6 0 13 -4 16 -10z m185 -24 c0 -2 -7 -7 -16 -10
-8 -3 -12 -2 -9 4 6 10 25 14 25 6z m-95 -26 c17 -11 26 -20 20 -20 -5 0 -23
9 -40 20 -16 11 -25 20 -20 20 6 0 24 -9 40 -20z m-245 -253 c85 -50 173 -100
196 -113 22 -12 59 -34 82 -48 23 -14 44 -26 46 -26 3 0 25 -13 50 -28 l45
-29 -29 -16 c-37 -22 -43 -21 -88 6 -20 13 -57 35 -82 49 -97 54 -317 181
-360 208 -25 15 -70 41 -100 58 -93 51 -255 144 -264 153 -5 4 6 17 24 27 l32
20 146 -85 c81 -47 217 -126 302 -176z m-394 92 c286 -166 468 -271 499 -288
17 -9 67 -38 113 -65 l82 -49 -31 -19 c-37 -23 -11 -34 -294 129 -104 61 -283
163 -398 229 l-207 119 27 23 c16 12 33 20 39 18 6 -2 82 -46 170 -97z m-61
-101 c72 -41 202 -117 290 -168 191 -111 204 -118 277 -159 32 -18 60 -37 63
-42 3 -4 -9 -16 -27 -25 -26 -13 -35 -14 -51 -4 -11 6 -34 20 -51 30 -90 52
-377 216 -416 238 -53 29 -204 118 -240 140 -14 9 -47 28 -75 43 -27 14 -51
31 -53 37 -2 6 9 17 25 26 32 17 19 22 258 -116z"/>
<path d="M9135 2033 c16 -16 132 -59 220 -81 119 -30 221 -42 370 -42 161 0
264 13 365 47 75 25 174 73 166 80 -2 3 -33 -4 -68 -15 -130 -40 -253 -55
-463 -56 -205 -1 -356 5 -365 14 -3 3 -48 15 -100 27 -52 12 -104 25 -115 29
-13 4 -17 4 -10 -3z"/>
<path d="M12645 1590 c-4 -6 -33 -24 -65 -40 -49 -25 -186 -140 -166 -140 4 0
54 28 112 61 95 56 144 97 144 120 0 12 -17 11 -25 -1z"/>
<path d="M12315 1396 c-11 -8 -16 -19 -12 -30 6 -14 10 -15 29 -5 30 16 29 14
22 33 -7 20 -15 20 -39 2z"/>
<path d="M12198 1331 c-50 -27 -59 -44 -31 -55 20 -8 93 38 93 59 0 24 -14 23
-62 -4z"/>
<path d="M12060 1248 c-14 -11 -19 -17 -11 -13 7 4 17 2 21 -5 11 -17 49 -3
47 18 -1 25 -28 24 -57 0z"/>
<path d="M11860 1137 c-57 -35 -73 -44 -385 -225 -104 -60 -262 -151 -350
-203 -360 -209 -399 -225 -490 -201 -24 6 -142 69 -262 138 -305 177 -540 312
-593 342 -25 13 -49 28 -55 32 -5 4 -32 20 -60 35 -27 15 -76 45 -107 65 -47
31 -58 35 -61 21 -8 -36 22 -67 120 -122 83 -47 195 -112 383 -222 19 -11 49
-27 65 -35 17 -8 41 -23 55 -32 14 -10 128 -77 254 -149 225 -128 231 -131
291 -131 82 0 109 9 225 77 378 219 800 462 870 501 62 34 140 83 140 89 0 2
-4 1 -10 -2 -20 -12 -10 8 16 31 35 33 18 30 -46 -9z"/>
<path d="M725 905 c-49 -29 -119 -69 -155 -88 -36 -19 -80 -43 -97 -54 l-33
-18 0 -372 0 -373 183 0 c169 0 185 1 229 22 l47 23 1 187 c0 168 -2 188 -17
197 -10 6 -13 11 -8 11 6 0 12 16 13 35 3 47 -27 405 -35 419 -4 6 -6 23 -5
38 3 41 -18 36 -123 -27z"/>
<path d="M6690 940 c-47 -5 -166 -13 -265 -19 -99 -7 -190 -14 -202 -17 l-23
-4 0 -234 0 -234 -92 -52 c-51 -29 -133 -76 -183 -105 -49 -29 -109 -63 -132
-76 -22 -13 -108 -62 -190 -109 l-148 -85 1054 -3 c580 -1 1057 0 1060 3 6 7
-4 26 -121 238 -201 362 -388 592 -542 667 -74 35 -106 40 -216 30z"/>
<path d="M10128 929 c-34 -13 -46 -46 -24 -68 37 -37 156 -7 156 39 0 36 -69
51 -132 29z"/>
<path d="M12910 540 c-36 -21 -96 -56 -135 -78 -38 -21 -185 -106 -325 -187
-376 -218 -372 -216 -410 -237 -19 -11 -39 -24 -45 -29 -5 -5 195 -9 498 -9
l507 0 0 290 c0 226 -3 290 -12 289 -7 -1 -42 -18 -78 -39z"/>
</g>
</svg>
