<?xml version="1.0" standalone="no"?>
<!DOCTYPE svg PUBLIC "-//W3C//DTD SVG 20010904//EN"
 "http://www.w3.org/TR/2001/REC-SVG-20010904/DTD/svg10.dtd">
<svg version="1.0" xmlns="http://www.w3.org/2000/svg"
 width="1200.000000pt" height="1200.000000pt" viewBox="0 0 1200.000000 1200.000000"
 preserveAspectRatio="xMidYMid meet">

<g transform="translate(0.000000,1200.000000) scale(0.100000,-0.100000)"
fill="#000000" stroke="none">
<path d="M7095 9918 c-121 -11 -218 -54 -287 -125 -93 -96 -76 -206 53 -347
34 -36 64 -66 69 -66 4 0 11 12 14 26 18 70 88 93 160 51 75 -43 101 -113 73
-195 -15 -43 -15 -43 17 -85 86 -113 209 -125 273 -28 58 87 88 286 64 428
-24 137 -111 276 -198 315 -55 24 -150 35 -238 26z"/>
<path d="M8126 8868 c-8 -13 -26 -61 -40 -108 -32 -107 -79 -186 -131 -222
-39 -27 -56 -32 -260 -69 -107 -19 -152 -45 -215 -125 -73 -91 -183 -266 -299
-472 -118 -209 -388 -730 -469 -903 l-64 -136 342 -472 341 -472 -23 -20 c-69
-59 -192 -152 -256 -194 -185 -119 -331 -136 -582 -69 -93 25 -337 117 -413
155 l-37 19 -58 -42 c-213 -156 -411 -342 -471 -441 -67 -113 -72 -162 -30
-284 10 -31 18 -57 17 -58 -2 -1 -55 -33 -118 -70 -267 -160 -476 -356 -697
-656 -189 -255 -384 -581 -583 -974 -118 -233 -305 -643 -298 -650 16 -16 673
-315 690 -315 7 1 38 38 68 83 30 45 107 152 172 237 364 484 750 841 1098
1015 95 48 279 115 314 115 8 0 31 -28 52 -63 91 -151 515 -824 666 -1057 268
-414 319 -490 331 -489 48 2 532 106 531 114 -1 6 -97 339 -213 740 -116 402
-211 736 -211 743 0 15 -9 15 135 -3 509 -63 952 -61 1285 6 153 31 268 71
415 144 330 164 603 438 800 799 52 97 69 141 133 351 323 1050 320 1894 -7
2560 -153 312 -366 570 -647 783 -152 115 -371 245 -475 281 -30 10 -85 35
-124 54 -87 45 -271 107 -452 152 -164 42 -197 44 -217 13z m201 -453 c23 -14
43 -31 43 -38 0 -19 -143 -157 -163 -157 -39 0 -30 31 27 89 31 31 56 60 56
64 0 4 -20 7 -45 7 -36 0 -51 -5 -69 -25 -72 -77 1 -197 100 -165 40 14 61 41
70 90 8 44 34 76 46 58 30 -48 -12 -161 -72 -190 -127 -64 -269 58 -219 189
35 93 139 128 226 78z m-258 -243 c65 -33 64 -44 -19 -127 -41 -41 -80 -75
-86 -75 -6 0 -17 7 -24 16 -11 13 -5 24 46 75 48 49 56 61 44 69 -19 12 -30
12 -68 -1 -65 -23 -83 -105 -34 -159 62 -69 172 -22 172 74 0 24 32 61 43 49
4 -3 7 -29 7 -57 0 -65 -26 -108 -81 -137 -73 -37 -150 -16 -203 54 -28 38
-28 125 0 164 52 70 132 92 203 55z m-298 -188 c10 -12 10 -20 1 -35 -7 -10
-12 -36 -12 -57 0 -33 8 -45 65 -102 36 -35 65 -70 65 -76 0 -6 -7 -17 -16
-24 -13 -12 -25 -3 -84 55 -75 74 -96 116 -87 172 6 37 32 83 46 83 5 0 14 -7
22 -16z m-203 -241 c-77 -76 -77 -77 -98 -58 l-21 19 78 78 77 78 21 -20 20
-20 -77 -77z m183 -177 c-8 -9 -19 -16 -25 -16 -6 0 -47 36 -91 80 -78 79 -79
79 -60 100 l19 21 85 -85 c73 -73 83 -87 72 -100z m-346 14 c-63 -64 -70 -74
-70 -111 0 -34 6 -46 33 -70 46 -41 90 -39 141 6 21 19 41 35 45 35 17 0 4
-63 -18 -85 -57 -57 -160 -53 -215 10 -37 42 -45 71 -38 132 4 40 13 54 78
119 73 74 73 74 93 54 20 -20 20 -20 -49 -90z m148 -19 c93 -96 105 -136 66
-220 l-20 -45 -20 21 c-17 17 -19 24 -10 41 6 11 11 37 11 57 0 32 -9 46 -65
104 -36 37 -65 72 -65 77 0 11 21 34 30 34 4 0 37 -31 73 -69z m-299 -201 c23
-11 66 -44 95 -74 54 -54 54 -56 36 -76 -18 -20 -19 -20 -86 45 -60 58 -71 65
-107 65 -61 0 -102 -38 -102 -96 0 -40 5 -49 66 -114 56 -59 64 -72 54 -85
-21 -25 -36 -18 -99 51 -90 98 -103 174 -44 245 50 59 117 73 187 39z m-214
-266 c78 -70 77 -153 -3 -240 l-50 -55 -20 20 -21 20 47 50 c61 65 64 106 13
157 -50 50 -84 47 -150 -16 -45 -42 -59 -50 -92 -50 l-38 0 54 56 c76 78 105
94 167 94 47 0 58 -4 93 -36z m-152 -227 c88 -88 93 -96 90 -131 l-3 -37 -130
131 -130 130 40 0 c38 0 47 -7 133 -93z"/>
<path d="M1983 8349 l-42 -19 83 -173 c46 -94 170 -347 275 -561 105 -214 191
-392 191 -396 0 -4 -30 -27 -67 -52 -234 -156 -438 -419 -548 -708 -27 -71
-85 -278 -85 -304 0 -3 84 -6 188 -6 l187 0 34 133 c53 211 147 485 211 614
54 110 110 193 130 193 4 0 76 -135 161 -300 84 -166 158 -308 164 -317 11
-15 17 -14 59 13 25 16 46 33 46 37 0 20 -925 1867 -934 1866 -6 0 -30 -9 -53
-20z"/>
<path d="M3303 6243 l-223 -3 0 -55 0 -55 600 0 600 0 0 54 0 53 -37 7 c-36 5
-444 5 -940 -1z"/>
<path d="M10413 5825 c-16 -11 -22 -34 -32 -122 -71 -613 -256 -1091 -555
-1435 -358 -411 -906 -631 -1536 -616 l-155 3 -3 -32 c-5 -51 17 -57 223 -57
99 -1 218 3 264 7 71 7 83 6 78 -7 -3 -8 -55 -198 -116 -423 -272 -1013 -381
-1458 -381 -1560 0 -64 36 -98 116 -110 68 -9 1783 -6 2257 5 l319 7 34 37
c30 33 34 44 34 92 0 87 26 29 -500 1096 -199 404 -433 879 -520 1055 l-158
320 48 50 c297 313 487 708 589 1220 34 171 67 425 58 448 -10 27 -41 38 -64
22z m-461 -2292 c429 -871 627 -1273 770 -1566 142 -291 166 -359 136 -384 -9
-8 -300 -14 -1033 -22 -951 -10 -1514 -6 -1531 12 -21 21 91 484 377 1552 60
226 114 424 120 442 9 29 15 32 87 48 271 59 583 206 777 364 28 22 51 40 53
41 2 0 112 -219 244 -487z"/>
</g>
</svg>
